<svg width="18" height="18" viewBox="0 0 18 18" fill="none" xmlns="http://www.w3.org/2000/svg">
<path fill-rule="evenodd" clip-rule="evenodd" d="M9 0C4.02944 0 0 4.02944 0 9C0 13.9706 4.02944 18 9 18C13.9706 18 18 13.9706 18 9C18 4.02944 13.9706 0 9 0ZM11.7666 7.65275L11.4719 9.71017H9.92365V14.6838H7.84726V9.71017H6.16016V7.65275H7.84726V6.08471C7.84726 4.30084 8.83933 3.31543 10.3571 3.31543C11.084 3.31543 11.8444 3.45443 11.8444 3.45443V5.2061H11.0065C10.1811 5.2061 9.92365 5.75476 9.92365 6.31763V7.65275H11.7666Z" fill="#3139CE"/>
</svg>
