<svg width="145" height="154" viewBox="0 0 145 154" fill="none" xmlns="http://www.w3.org/2000/svg">
<ellipse cx="47.5001" cy="48.5285" rx="47.5001" ry="48.5285" transform="matrix(0.950846 0.321934 -0.327264 0.940367 52.9438 32)" fill="#5B64FF"/>
<g clip-path="url(#clip0_1_13976)">
<path d="M93.2703 62.324L92.4079 63.5747L78.4711 103.621L78.7122 104.156L100.032 99.0914L93.2703 62.324Z" fill="white"/>
<path d="M92.8882 62.1946L64.2761 86.9852L78.33 104.026L85.0945 84.5891L92.8882 62.1946Z" fill="white"/>
<path d="M77.3097 107.655L76.9938 107.865L71.9487 122.362L71.9295 123.114L98.8545 102.474L77.3097 107.655Z" fill="white"/>
<path d="M71.7128 123.041L77.093 107.581L63.0991 90.3675L71.7128 123.041Z" fill="white"/>
</g>
<path opacity="0.88" d="M49.2104 130.78C31.8678 120.791 14.8796 77.1609 35.4861 55.1593C61.5877 27.2907 92.1973 49.1582 91.4473 1" stroke="#5B64FF" stroke-width="2" stroke-linecap="round"/>
<defs>
<clipPath id="clip0_1_13976">
<rect width="63.3335" height="64.7046" fill="white" transform="matrix(0.950846 0.321934 -0.327264 0.940367 62.7783 52)"/>
</clipPath>
</defs>
</svg>
