<svg width="187" height="85" viewBox="0 0 187 85" fill="none" xmlns="http://www.w3.org/2000/svg">
<path opacity="0.8" d="M123.74 49.2177C117.068 60.0989 67.5886 68.0532 23.3823 58.6785C-4.19376 52.8306 -23.5078 26.5659 137.917 33.2573C157.839 34.0831 179.972 40.4818 184.236 45.655C188.5 50.8282 189.446 76.8983 2.00016 76.4994" stroke="#35438E" stroke-width="2" stroke-linecap="round"/>
<path d="M104.189 60C120.758 60 134.189 46.5685 134.189 30C134.189 13.4315 120.758 0 104.189 0C87.6209 0 74.1895 13.4315 74.1895 30C74.1895 46.5685 87.6209 60 104.189 60Z" fill="#354390"/>
<path opacity="0.8" d="M116.966 17.1864L112.514 19.5072L91.0009 30.7075C90.6944 28.3006 91.0481 25.8539 92.0225 23.6405C92.997 21.427 94.5538 19.5339 96.5195 18.1721C98.4851 16.8104 100.782 16.0337 103.154 15.9286C105.527 15.8235 107.881 16.3942 109.954 17.577L112.503 16.2497L112.883 16.0506C110.465 14.2571 107.596 13.2082 104.614 13.0279C101.632 12.8476 98.6612 13.5434 96.0534 15.033C93.4456 16.5227 91.3092 18.7441 89.8966 21.4349C88.4839 24.1256 87.854 27.1734 88.0813 30.2183C88.1238 30.791 87.9996 31.3638 87.7243 31.8645C87.449 32.3652 87.035 32.7715 86.5343 33.0321L85.1895 33.7337V37.0025L89.1478 34.9396L90.4296 34.2703L91.6928 33.6123L114.371 21.7996L116.92 20.4742L122.188 17.7306V14.4636L116.966 17.1864ZM122.189 21.0014L92.9838 36.2005L90.4352 37.5278L85.1913 40.2638V43.5308L90.3999 40.8194L94.8536 38.4986L116.389 27.2812C116.7 29.6919 116.349 32.1434 115.375 34.3616C114.4 36.5797 112.841 38.4768 110.872 39.8406C108.902 41.2044 106.601 41.9811 104.224 42.0836C101.848 42.1861 99.4899 41.6105 97.4152 40.4212L97.2575 40.5065L94.4937 41.9476C96.9119 43.7421 99.7822 44.7916 102.765 44.9721C105.748 45.1525 108.72 44.4563 111.328 42.9659C113.936 41.4754 116.073 39.2528 117.485 36.5609C118.897 33.8689 119.526 30.8199 119.298 27.7742C119.256 27.2021 119.38 26.6299 119.655 26.1297C119.93 25.6294 120.343 25.2233 120.843 24.9623L122.189 24.2607V21.0032V21.0014Z" fill="white"/>
</svg>
